<svg xmlns="http://www.w3.org/2000/svg" width="170" height="35" fill="none">
  <path fill="#5061FC" d="M62.137 27.082c-2.318 0-4.309-.398-5.971-1.194-1.663-.82-3.021-1.885-4.075-3.197-1.054-1.335-1.838-2.763-2.353-4.285C49.246 16.86 49 15.362 49 13.91v-.773c0-1.592.258-3.161.773-4.707a12.831 12.831 0 0 1 2.353-4.25c1.077-1.265 2.424-2.271 4.04-3.02C57.805.385 59.736 0 61.96 0c2.319 0 4.368.433 6.147 1.3 1.78.866 3.197 2.072 4.25 3.618 1.078 1.522 1.71 3.313 1.897 5.374H68.46c-.164-1.03-.539-1.909-1.124-2.635-.586-.726-1.347-1.288-2.284-1.686-.913-.398-1.943-.597-3.09-.597-1.148 0-2.167.2-3.057.597a6.19 6.19 0 0 0-2.248 1.686c-.585.726-1.042 1.593-1.37 2.6-.304.983-.456 2.084-.456 3.302 0 1.194.152 2.294.456 3.301a8.18 8.18 0 0 0 1.406 2.6 6.444 6.444 0 0 0 2.318 1.686c.913.374 1.955.562 3.126.562 1.78 0 3.278-.433 4.496-1.3 1.241-.866 1.99-2.06 2.248-3.583h5.76a11.422 11.422 0 0 1-1.896 5.164c-1.03 1.545-2.447 2.786-4.25 3.723-1.78.913-3.9 1.37-6.358 1.37ZM75.15 26.01V11.082h5.233v16H75.15V26.01Zm14.645-15.156c-1.943 0-3.512.234-4.707.702-1.194.492-2.072 1.3-2.634 2.424-.539 1.147-.808 2.693-.808 4.637v8.465h5.234v-8.676c0-.913.234-1.616.702-2.108.492-.468 1.183-.702 2.073-.702H92.5v-4.742h-2.705Zm27.066 16.158c-1.944 0-3.513-.235-4.707-.703-1.194-.492-2.073-1.3-2.635-2.424-.538-1.147-.807-2.693-.807-4.636v-8.465h5.233v8.676c0 .913.234 1.615.703 2.107.492.468 1.182.703 2.072.703h2.845v4.742h-2.704ZM100.735 27c-1.308 0-2.45-.21-3.426-.628-.957-.437-1.758-1.02-2.403-1.747a7.214 7.214 0 0 1-1.436-2.458A8.911 8.911 0 0 1 93 19.3v-.518c0-1.02.166-1.994.497-2.922a7.478 7.478 0 0 1 1.464-2.512c.645-.728 1.446-1.301 2.404-1.72.976-.419 2.09-.628 3.342-.628 1.363 0 2.569.264 3.619.792 1.05.51 1.888 1.229 2.514 2.157.626.928.976 1.993 1.05 3.194h-4.338a2.656 2.656 0 0 0-.828-1.693c-.461-.473-1.133-.71-2.017-.71-.736 0-1.353.183-1.85.547-.48.364-.839.864-1.078 1.501-.24.637-.36 1.393-.36 2.267 0 .8.111 1.529.332 2.184.221.637.571 1.138 1.05 1.502.497.346 1.142.518 1.934.518.589 0 1.086-.1 1.492-.3a2.57 2.57 0 0 0 .994-.874c.258-.382.414-.819.47-1.31H108c-.055 1.238-.405 2.33-1.05 3.276-.644.929-1.501 1.657-2.569 2.184-1.068.51-2.283.765-3.646.765Zm23.885-15.955v9.818c0 .785.2 1.373.6 1.766.4.392 1.04.588 1.92.588a95.777 95.777 0 0 0 3.96-.112c.76-.037 1.45-.075 2.07-.112v3.783c-.46.037-1 .075-1.62.112a65.87 65.87 0 0 1-3.78.112c-1.68 0-3.09-.224-4.23-.672-1.16-.449-2.04-1.13-2.64-2.046-.6-.897-.9-2.055-.9-3.475v-4.623c0-.684.391-1.614.391-1.614l.427-1.197c.455-.578.745-.816 1.281-1.196.419-.363.698-.538 1.281-.798.469-.252.744-.298 1.24-.334Zm4.44-.045c1.18 0 2.22.196 3.12.588.88.393 1.57.953 2.07 1.682.5.747.75 1.634.75 2.662 0 1.12-.31 2.036-.93 2.746-.62.728-1.49 1.26-2.61 1.597-1.12.355-2.41.532-3.87.532h-3.51l.078-2.493h3.462c.84 0 1.49-.197 1.95-.589.44-.374.66-.887.66-1.541 0-.617-.22-1.121-.66-1.513-.46-.374-1.11-.56-1.95-.56-.54 0-1.02.083-1.44.252-.343.137-.96.308-.96.308-.72.329-.593.484-.6 1.26v-4.886h2.1c1.281 0 1.2-.045 2.34-.045Z"/>
  <path fill="#222" d="M0 26.415V.773h7.938l5.866 14.401h.668L20.267.773h8.08v25.642h-5.69V4.53l.807.07-6.78 16.615h-5.479L4.391 4.6l.878-.07v21.883H0Zm31.814 7.622V29.26h4.004c.609 0 1.124-.082 1.545-.246a2.02 2.02 0 0 0 1.019-.738c.258-.351.468-.831.632-1.44l4.742-19.67h5.34L43.72 27.96c-.375 1.499-.901 2.693-1.58 3.583-.656.89-1.546 1.522-2.67 1.897-1.1.398-2.506.597-4.215.597h-3.442Zm6.041-8.044v-4.39h4.075v4.39h-4.075Zm-2.318 0L29.636 7.166h5.655l5.585 18.827h-5.34Z"/>
</svg>
